<svg width="518" height="482" viewBox="0 0 518 482" fill="none" xmlns="http://www.w3.org/2000/svg">
<g clip-path="url(#clip0_58_6994)">
<path d="M470.381 247.38C470.381 117.83 365.103 12.8213 235.221 12.8213C105.338 12.8213 0 117.83 0 247.38C0 297.504 15.7304 343.964 42.6005 382.06H427.78C454.65 343.964 470.381 297.504 470.381 247.38Z" fill="white"/>
<path d="M235.221 482C314.852 482 385.302 442.5 427.841 382.059H42.6005C85.1398 442.5 155.529 482 235.221 482Z" fill="#F8F8F8"/>
<g filter="url(#filter0_d_58_6994)">
<path d="M518 89.196C518 39.9276 477.97 0 428.576 0C379.181 0 339.151 39.9276 339.151 89.196C339.151 107.023 344.415 123.629 353.474 137.61H503.739C512.798 123.69 518 107.084 518 89.196Z" fill="white"/>
<path d="M428.576 178.453C460.098 178.453 487.825 162.213 503.739 137.609H353.413C369.327 162.213 397.054 178.453 428.576 178.453Z" fill="#F8F8F8"/>
</g>
<path d="M462.729 133.886H453.303V149.821H462.729V133.886Z" fill="#2872EF"/>
<path d="M403.664 134.068H392.402V150.002H403.664V134.068Z" fill="#2872EF"/>
<path d="M445.714 59.4026H410.581H410.52C397.482 59.4026 386.955 69.9645 386.71 83.0294V150.064H392.953V135.472H416.334V150.003H424.72V149.881H434.329V83.5178C434.329 83.5178 434.329 83.5178 434.329 83.4568C434.329 83.3957 434.329 83.4568 434.329 83.3957V82.8463C434.268 80.9537 434.023 79.0611 433.534 77.2906H445.714V59.4026Z" fill="#5493EF"/>
<path d="M471.237 83.3345V82.724C470.931 69.72 460.281 59.2803 447.121 59.2803C433.962 59.2803 423.25 69.8422 423.006 82.9071V149.941H434.329V135.35H459.975V149.758H471.298L471.237 83.3345C471.237 83.3955 471.237 83.3955 471.237 83.3345Z" fill="#4787F2"/>
<path d="M392.708 89.6235L416.151 89.7456L416.212 127.475L392.769 127.597L392.708 89.6235Z" fill="#FBF9FA"/>
<path d="M395.462 101.834H413.09L413.212 123.996L395.707 124.179L395.462 101.834Z" fill="#303C7F"/>
<path d="M467.381 76.375L470.687 70.3309C470.993 69.7204 471.849 69.7204 472.217 70.3309L475.522 76.375C475.583 76.4971 475.706 76.6192 475.889 76.7413L481.949 80.0381C482.561 80.3433 482.561 81.1981 481.949 81.5644L475.889 84.8611C475.767 84.9222 475.644 85.0443 475.522 85.2274L472.217 91.2715C471.911 91.882 471.054 91.882 470.687 91.2715L467.381 85.2274C467.32 85.1053 467.198 84.9832 467.014 84.8611L460.955 81.5644C460.342 81.2591 460.342 80.4044 460.955 80.0381L467.014 76.7413C467.137 76.6192 467.259 76.4971 467.381 76.375Z" fill="#F3A62C"/>
<path d="M378.202 55.129L380.222 51.4049C380.405 51.0385 380.956 51.0385 381.14 51.4049L383.16 55.129C383.221 55.19 383.282 55.3121 383.343 55.3121L387.077 57.3268C387.444 57.51 387.444 58.0595 387.077 58.2426L383.343 60.2573C383.282 60.3184 383.16 60.3794 383.16 60.4405L381.14 64.1646C380.956 64.5309 380.405 64.5309 380.222 64.1646L378.202 60.4405C378.141 60.3794 378.079 60.2573 378.018 60.2573L374.284 58.2426C373.917 58.0595 373.917 57.51 374.284 57.3268L378.018 55.3121C378.079 55.3121 378.141 55.2511 378.202 55.129Z" fill="#F3A62C"/>
<path d="M395.524 97.1936V99.4525L407.398 99.3915V97.0715L395.524 97.1936Z" fill="#303C7F"/>
<path d="M390.933 78.8782C390.933 78.8782 391.974 63.0659 408.989 62.2112L428.943 62.2722C428.943 62.2722 419.272 68.6216 419.334 78.695L390.933 78.8782Z" fill="#303C7F"/>
<path d="M408.928 62.2112V78.7561L390.933 78.8171C390.933 78.8171 391.974 63.127 408.928 62.2112Z" fill="#252C66"/>
<path d="M395.524 92.981V94.9346H403.052L402.93 92.8589L395.524 92.981Z" fill="#303C7F"/>
<path d="M327.155 69.5982L325.686 79.7327L376.304 76.3749L333.398 69.293L327.155 69.5982Z" fill="#377BDD"/>
<path d="M329.542 73.8716L325.624 79.7936L334.254 79.1831L329.542 73.8716Z" fill="#4787F2"/>
<path d="M329.664 73.8716L340.192 90.4775L376.61 76.3747L329.664 73.8716Z" fill="#5493EF"/>
<path d="M321.768 60.4407L327.155 69.7205L376.61 76.3751L321.768 60.4407Z" fill="#5493EF"/>
<path d="M261.112 245.548H257.745V405.563H261.112V245.548Z" fill="#232323"/>
<path fill-rule="evenodd" clip-rule="evenodd" d="M132.928 212.548C133.047 213.383 132.465 214.156 131.629 214.275L100.29 218.732C99.4538 218.851 98.6789 218.27 98.5596 217.436C98.4403 216.601 99.0218 215.829 99.8585 215.71L131.197 211.253C132.033 211.134 132.808 211.714 132.928 212.548Z" fill="#232323"/>
<path fill-rule="evenodd" clip-rule="evenodd" d="M99.4622 301.715C99.4622 300.873 100.147 300.189 100.992 300.189H198.251C199.096 300.189 199.781 300.873 199.781 301.715C199.781 302.558 199.096 303.242 198.251 303.242H100.992C100.147 303.242 99.4622 302.558 99.4622 301.715Z" fill="#232323"/>
<path fill-rule="evenodd" clip-rule="evenodd" d="M166.546 301.105C167.391 301.105 168.076 301.788 168.076 302.631V410.875C168.076 411.718 167.391 412.401 166.546 412.401C165.701 412.401 165.016 411.718 165.016 410.875V302.631C165.016 301.788 165.701 301.105 166.546 301.105Z" fill="#232323"/>
<path fill-rule="evenodd" clip-rule="evenodd" d="M171.656 244.29C172.318 243.767 173.281 243.879 173.805 244.539C173.923 244.688 174.022 244.878 174.058 244.945C174.06 244.949 174.062 244.953 174.064 244.956C174.125 245.072 174.2 245.22 174.286 245.395C174.459 245.746 174.694 246.236 174.985 246.851C175.567 248.085 176.386 249.846 177.404 252.057C179.442 256.479 182.288 262.714 185.67 270.153C192.433 285.03 201.341 304.728 210.213 324.379C219.084 344.031 227.919 363.636 234.536 378.329C237.845 385.675 240.599 391.793 242.526 396.075C243.49 398.216 244.246 399.897 244.762 401.044L245.55 402.794L245.552 402.8C245.553 402.801 245.553 402.802 244.157 403.426C242.761 404.051 242.761 404.051 242.76 404.049L241.97 402.294C241.454 401.147 240.698 399.466 239.734 397.325C237.807 393.044 235.053 386.926 231.745 379.58C225.128 364.888 216.293 345.283 207.422 325.633C198.551 305.982 189.644 286.287 182.882 271.413C179.501 263.976 176.658 257.747 174.623 253.331C173.606 251.123 172.793 249.372 172.216 248.153C171.928 247.542 171.701 247.07 171.54 246.743C171.459 246.578 171.398 246.458 171.356 246.379C171.345 246.358 171.336 246.342 171.33 246.33C170.894 245.676 171.027 244.786 171.656 244.29ZM244.783 404.819C244.012 405.164 243.107 404.82 242.761 404.051L244.157 403.426L245.553 402.802C245.899 403.571 245.555 404.474 244.783 404.819Z" fill="#232323"/>
<path d="M195.436 152.202C195.62 156.536 194.763 160.81 193.906 165.083C197.456 165.999 200.21 168.991 201.496 172.409C202.781 175.828 202.781 179.614 202.169 183.155C201.251 188.466 198.925 193.472 195.558 197.685C194.089 199.516 192.314 201.226 190.05 201.775C188.275 202.203 186.439 201.897 184.602 201.531C179.032 200.493 172.912 199.089 169.484 194.571C168.015 192.679 167.219 190.359 166.424 188.1C165.444 185.413 164.465 182.605 164.404 179.736C164.281 174.974 166.607 170.517 168.872 166.304C171.381 161.664 173.891 156.964 176.4 152.324C177.931 149.515 179.461 146.646 181.726 144.448C183.684 142.555 188.52 139.625 191.396 141.212C194.518 142.922 195.314 149.088 195.436 152.202Z" fill="#232323"/>
<path d="M190.723 201.896L219.307 233.826L206.821 238.771L180.073 214.473L190.723 201.896Z" fill="#ED4550"/>
<path d="M112.867 267.161C129.209 266.55 145.552 266.306 161.955 266.611C162.996 266.611 164.159 266.611 164.954 265.94C165.322 265.573 165.628 265.146 165.811 264.658C168.627 258.858 169.423 252.325 170.769 245.976C170.892 245.304 171.075 244.572 171.443 244.022C171.932 243.229 172.789 242.801 173.585 242.313C177.012 240.237 180.318 237.49 181.725 233.766C183.99 227.721 180.93 220.701 183.011 214.656C183.868 212.153 185.581 209.956 187.601 208.185C189.07 206.903 190.784 205.621 191.151 203.728C191.396 202.507 190.968 201.286 190.539 200.126C189.315 196.646 187.969 192.983 185.153 190.48C182.276 187.916 178.237 187 174.442 186.329C169.79 185.535 165.016 184.924 160.303 184.619C153.019 184.131 145.49 184.192 138.635 186.634C133.494 188.465 129.148 191.762 125.904 196.158C123.027 200.126 122.66 203.118 122.354 207.941C121.436 220.762 118.314 233.277 115.866 245.854C114.458 252.875 113.295 260.018 112.867 267.161Z" fill="#F4F4F4"/>
<path d="M327.828 241.214H161.344C160.67 241.214 160.119 241.764 160.119 242.435V245.976C160.119 246.648 160.67 247.197 161.344 247.197H327.828C328.502 247.197 329.052 246.648 329.052 245.976V242.435C329.052 241.764 328.502 241.214 327.828 241.214Z" fill="#232323"/>
<path d="M259.888 243.045H217.716C215.206 243.045 213.125 240.969 213.125 238.466C213.125 235.963 215.206 233.887 217.716 233.887H259.888C262.397 233.887 264.478 235.963 264.478 238.466C264.478 241.03 262.458 243.045 259.888 243.045Z" fill="#E29729"/>
<path d="M318.402 243.167H252.053C249.421 243.167 247.524 240.725 248.136 238.222L258.48 194.998C258.908 193.166 260.561 191.884 262.397 191.884H328.685C331.317 191.884 333.214 194.326 332.602 196.829L322.258 240.054C321.891 241.885 320.238 243.167 318.402 243.167Z" fill="#F3A62C"/>
<path d="M293.919 224.303C297.637 224.303 300.652 221.296 300.652 217.587C300.652 213.878 297.637 210.871 293.919 210.871C290.201 210.871 287.186 213.878 287.186 217.587C287.186 221.296 290.201 224.303 293.919 224.303Z" fill="#BF7C1B"/>
<path d="M131.841 221.372C131.841 221.372 135.514 223.692 138.941 221.494C142.369 219.296 148.918 210.017 148.673 208.735C148.428 207.453 137.35 200.798 133.371 206.598C129.393 212.398 131.841 221.372 131.841 221.372Z" fill="#DFE5EA"/>
<path d="M130.74 214.29C130.74 214.29 159.079 243.472 163.302 243.655C167.525 243.777 211.35 243.655 211.35 243.655C211.35 243.655 216.308 242.068 218.45 239.321C220.654 236.573 229.345 237.428 229.467 236.146C229.59 234.864 230.018 233.093 227.57 232.788C225.122 232.483 217.716 230.041 215.941 231.079C214.227 232.117 211.411 234.986 209.82 235.413C208.228 235.841 171.749 236.268 168.872 234.131C165.995 231.934 147.266 208.062 147.266 208.062C147.266 208.062 127.985 195.364 130.74 214.29Z" fill="#F45661"/>
<path d="M130.862 220.212C130.862 220.212 132.881 223.448 133.004 220.09C133.126 216.732 131.351 210.749 136.125 208.185C140.9 205.621 149.285 211.055 148.734 208.429C148.183 205.865 140.594 181.384 127.189 191.518C113.785 201.714 130.862 220.212 130.862 220.212Z" fill="#F1F1F1"/>
<path d="M150.571 185.78C151.122 189.26 153.019 192.617 156.141 194.266C159.262 195.914 163.486 195.426 165.75 192.739C167.587 190.542 167.77 187.489 167.831 184.62C167.954 180.651 167.893 176.622 167.77 172.654C169.913 173.936 172.238 175.279 174.748 175.218C177.441 175.157 179.889 173.386 181.42 171.188C182.95 168.991 183.807 166.365 184.541 163.801C185.888 159.039 187.051 154.277 187.969 149.393C188.336 147.439 188.703 145.486 188.826 143.471C188.887 142.677 188.826 141.884 188.52 141.212C188.091 140.296 187.112 139.747 186.255 139.197C184.419 138.16 182.644 137.061 180.685 136.389C177.686 135.29 174.381 135.046 171.198 134.863C168.566 134.68 165.873 134.558 163.241 135.107C160.487 135.718 157.977 137.183 155.468 138.648C151.367 141.029 147.082 143.593 145.062 147.867C143.654 150.797 143.532 154.155 143.471 157.452C143.41 166.304 143.96 175.462 148.123 183.277C148.184 183.399 148.123 183.032 148.184 182.91C148.245 182.788 148.429 182.849 148.551 182.91C149.775 183.46 150.387 184.436 150.571 185.78Z" fill="#F45661"/>
<path d="M153.08 146.584C152.529 147.195 152.223 148.049 152.04 148.904C151.672 150.797 151.734 152.75 152.346 154.582C153.202 157.085 154.855 159.222 156.018 161.542C159.017 167.586 158.283 174.912 155.712 181.139C154.61 183.825 153.141 186.512 150.815 188.343C147.694 190.846 143.532 191.518 139.553 191.701C138.023 191.762 136.493 191.762 135.024 191.335C133.555 190.907 132.269 190.175 130.984 189.259C121.558 182.482 117.58 169.173 121.742 158.367C122.966 155.192 124.863 152.201 127.618 150.308C130.433 148.416 134.228 147.744 137.227 149.209C136.493 146.706 135.942 144.081 136.799 141.639C138.084 138.22 142.552 136.45 145.858 138.098C145.552 134.801 146.347 131.382 148.122 128.574C148.857 127.414 149.775 126.315 150.938 125.582C153.631 123.934 157.059 124.545 160.18 124.911C163.485 125.338 166.852 125.521 170.157 125.033C173.401 124.545 176.523 123.446 179.705 122.591C182.888 121.736 186.255 121.187 189.499 121.797C192.743 122.469 195.864 124.545 196.966 127.658C198.374 131.688 196.17 136.022 193.906 139.685C192.559 141.761 190.784 144.081 188.274 144.081C186.805 144.081 185.459 143.226 184.235 142.433C181.236 140.479 177.992 138.647 174.38 138.647C171.32 138.647 168.443 139.991 166.056 141.883C164.342 143.226 162.261 146.828 159.997 146.828C157.671 146.706 155.406 144.02 153.08 146.584Z" fill="#232323"/>
<path d="M212.819 400.496C212.819 400.863 212.819 401.351 213.125 401.595C213.308 401.778 213.614 401.839 213.859 401.901C218.756 402.755 223.652 403.61 228.488 404.465C230.691 404.831 232.895 405.258 235.098 405.503C237.424 405.747 239.75 405.869 242.076 405.808C243.545 405.808 245.014 405.686 246.422 405.136C247.523 404.709 248.625 403.793 248.748 402.633C248.87 401.656 248.319 400.741 247.585 400.13C246.85 399.52 245.932 399.153 245.075 398.787C238.404 396.223 231.365 394.574 224.999 391.4C223.285 390.545 221.449 389.507 219.429 389.446C217.654 389.385 216.002 390.362 214.471 391.217C213.247 391.888 213.002 392.56 212.941 393.964C212.819 396.101 212.88 398.298 212.819 400.496Z" fill="#F45661"/>
<path d="M267.355 401.168C267.416 401.656 267.477 402.145 267.722 402.572C268.212 403.366 269.191 403.671 270.109 403.854C277.27 405.442 284.554 406.113 291.899 405.869C293.429 405.808 295.021 405.686 296.428 405.014C297.347 404.526 298.204 403.61 297.959 402.633C297.836 402.206 297.591 401.84 297.285 401.534C291.716 395.185 281.494 394.941 275.312 389.08C274.577 388.408 273.843 387.615 272.864 387.615C272.313 387.615 271.762 387.859 271.272 388.103C269.314 389.08 266.62 389.69 266.498 392.071C266.314 395.002 267.11 398.299 267.355 401.168Z" fill="#F45661"/>
<path d="M161.833 266.061L227.815 269.541C227.815 269.541 240.179 269.358 240.485 281.812C240.791 294.267 223.285 390.728 223.285 390.728C223.285 390.728 215.512 393.17 212.696 391.888L214.349 297.991L152.101 292.985L161.833 266.061Z" fill="#2872EF"/>
<path d="M112.806 267.16C112.806 267.16 105.155 301.837 135.697 301.837C166.24 301.837 203.944 300.128 203.944 300.128C203.944 300.128 206.025 300.006 207.984 303.913C209.942 307.82 265.641 392.315 265.641 392.315C265.641 392.315 274.027 391.094 274.761 387.797L225.489 291.275C225.489 291.275 221.449 280.225 207.678 277.783C193.906 275.341 162.078 266 162.078 266L112.806 267.16Z" fill="#4787F2"/>
<path fill-rule="evenodd" clip-rule="evenodd" d="M100.207 215.296C100.924 215.155 101.641 215.54 101.919 216.215L181.55 409.869C181.87 410.649 181.496 411.541 180.715 411.861C179.933 412.18 179.039 411.808 178.718 411.028L102.033 224.537V409.472C102.033 410.315 101.348 410.998 100.503 410.998C99.6577 410.998 98.9727 410.315 98.9727 409.472V216.794C98.9727 216.065 99.4897 215.437 100.207 215.296Z" fill="#232323"/>
<g clip-path="url(#clip1_58_6994)">
<path d="M247.712 215.931C239.008 210.948 232.835 201.781 231.539 191.876C230.243 181.971 233.885 171.513 241.045 164.499C247.959 157.732 257.588 154.286 264.687 147.704C271.23 141.675 275.242 132.815 274.872 123.956C274.501 115.097 269.316 106.423 261.415 102.362C252.341 97.7482 240.613 99.7784 232.959 106.484C225.305 113.19 221.725 124.018 222.959 134.046C224.194 144.074 229.749 153.425 237.465 160.07C244.07 165.729 252.403 169.667 261.107 170.036C269.81 170.467 278.822 167.083 284.439 160.439C291.723 151.764 292.279 139.46 291.908 128.14C291.476 116.82 290.612 104.885 295.921 94.8567C300.427 86.3667 309.316 80.2761 318.945 79.2302" stroke="#ED4550" stroke-width="1.5" stroke-miterlimit="10" stroke-linecap="round" stroke-linejoin="round"/>
<path d="M217.095 220.299C217.836 221.837 218.391 223.498 218.7 225.159" stroke="#232323" stroke-width="1.5" stroke-miterlimit="10" stroke-linecap="round" stroke-linejoin="round"/>
<path d="M224.193 219.007C223.823 221.591 223.638 224.175 223.638 226.759" stroke="#232323" stroke-width="1.5" stroke-miterlimit="10" stroke-linecap="round" stroke-linejoin="round"/>
<path d="M226.909 227.497C227.897 226.574 228.761 225.405 229.379 224.237" stroke="#232323" stroke-width="1.5" stroke-miterlimit="10" stroke-linecap="round" stroke-linejoin="round"/>
</g>
</g>
<defs>
<filter id="filter0_d_58_6994" x="309.151" y="-26" width="238.849" height="238.453" filterUnits="userSpaceOnUse" color-interpolation-filters="sRGB">
<feFlood flood-opacity="0" result="BackgroundImageFix"/>
<feColorMatrix in="SourceAlpha" type="matrix" values="0 0 0 0 0 0 0 0 0 0 0 0 0 0 0 0 0 0 127 0" result="hardAlpha"/>
<feOffset dy="4"/>
<feGaussianBlur stdDeviation="15"/>
<feColorMatrix type="matrix" values="0 0 0 0 0.909804 0 0 0 0 0.941176 0 0 0 0 0.992157 0 0 0 1 0"/>
<feBlend mode="normal" in2="BackgroundImageFix" result="effect1_dropShadow_58_6994"/>
<feBlend mode="normal" in="SourceGraphic" in2="effect1_dropShadow_58_6994" result="shape"/>
</filter>
<clipPath id="clip0_58_6994">
<rect width="518" height="482" fill="white"/>
</clipPath>
<clipPath id="clip1_58_6994">
<rect width="103.085" height="149.497" fill="white" transform="translate(216.478 78.615)"/>
</clipPath>
</defs>
</svg>
