<svg width="20" height="20" viewBox="0 0 20 20" fill="none" xmlns="http://www.w3.org/2000/svg">
<path d="M18.4531 8.35547H11.0117C10.6836 8.35547 10.418 8.62109 10.418 8.94922V11.3281C10.418 11.6562 10.6836 11.9219 11.0117 11.9219H15.2031C14.7461 13.1133 13.8867 14.1094 12.7969 14.7422L14.582 17.8359C17.4453 16.1797 19.1406 13.2695 19.1406 10.0156C19.1406 9.55078 19.1055 9.21875 19.0391 8.84766C18.9844 8.5625 18.7383 8.35547 18.4531 8.35547Z" fill="#167EE6"/>
<path d="M10.0195 15.4922C7.96875 15.4922 6.17969 14.3711 5.21875 12.7148L2.125 14.4961C3.69922 17.2266 6.64844 19.0625 10.0195 19.0625C11.6758 19.0625 13.2344 18.6172 14.582 17.8398V17.8359L12.7969 14.7422C11.9766 15.2187 11.0313 15.4922 10.0195 15.4922Z" fill="#12B347"/>
<path d="M14.5781 17.8398V17.8359L12.793 14.7422C11.9766 15.2148 11.0312 15.4922 10.0195 15.4922V19.0625C11.6758 19.0625 13.2344 18.6172 14.5781 17.8398Z" fill="#0F993E"/>
<path d="M4.46875 9.94141C4.46875 8.92969 4.74609 7.98438 5.21875 7.16797L2.125 5.38672C1.34375 6.72656 0.898438 8.28125 0.898438 9.94141C0.898438 11.6016 1.34375 13.1562 2.125 14.4961L5.21875 12.7148C4.74219 11.8984 4.46875 10.9531 4.46875 9.94141Z" fill="#FFD500"/>
<path d="M10.0195 4.39062C11.3555 4.39062 12.5859 4.86719 13.543 5.65625C13.7813 5.85156 14.125 5.83594 14.3399 5.62109L16.0234 3.9375C16.2695 3.69141 16.25 3.28906 15.9883 3.0625C14.3828 1.66406 12.293 0.820312 10.0195 0.820312C6.64844 0.820312 3.69922 2.65625 2.125 5.38672L5.21875 7.16797C6.17969 5.51172 7.96875 4.39062 10.0195 4.39062Z" fill="#FF4B26"/>
<path d="M13.543 5.65625C13.7812 5.85156 14.125 5.83594 14.3398 5.62109L16.0234 3.9375C16.2695 3.69141 16.25 3.28906 15.9883 3.0625C14.3828 1.66406 12.293 0.820312 10.0195 0.820312V4.39063C11.3555 4.39063 12.5859 4.86328 13.543 5.65625Z" fill="#D93F21"/>
</svg>
