<svg width="18" height="17" viewBox="0 0 18 17" fill="none" xmlns="http://www.w3.org/2000/svg">
<path d="M12.8645 10.6918H12.0515L11.7633 10.4294C12.7719 9.32133 13.3791 7.88279 13.3791 6.3179C13.3791 2.82847 10.3842 0 6.68954 0C2.99485 0 0 2.82847 0 6.3179C0 9.80732 2.99485 12.6358 6.68954 12.6358C8.34648 12.6358 9.86964 12.0623 11.0429 11.1098L11.3208 11.3819V12.1498L16.4666 17L18 15.5517L12.8645 10.6918ZM6.68954 10.6918C4.12693 10.6918 2.05832 8.73814 2.05832 6.3179C2.05832 3.89766 4.12693 1.94397 6.68954 1.94397C9.25214 1.94397 11.3208 3.89766 11.3208 6.3179C11.3208 8.73814 9.25214 10.6918 6.68954 10.6918Z" fill="#5F6368"/>
</svg>
