<svg width="139" height="130" viewBox="0 0 139 130" fill="none" xmlns="http://www.w3.org/2000/svg">
<g clip-path="url(#clip0_1263_5587)">
<path d="M126.222 66.7208C126.222 31.7797 97.9718 3.45801 63.1191 3.45801C28.2665 3.45801 0 31.7797 0 66.7208C0 80.2395 4.22108 92.7702 11.4314 103.045H114.79C122.001 92.7702 126.222 80.2395 126.222 66.7208Z" fill="#F6F6F6"/>
<path d="M63.1193 130C84.4875 130 103.392 119.346 114.807 103.045H11.4316C22.8466 119.346 41.7347 130 63.1193 130Z" fill="#F7F7F7"/>
<mask id="mask0_1263_5587" style="mask-type:alpha" maskUnits="userSpaceOnUse" x="0" y="3" width="127" height="128">
<path d="M126.222 66.7211C126.222 31.78 97.9718 3.45825 63.1191 3.45825C28.2665 3.45825 0 31.78 0 66.7211C0 80.2398 4.22108 92.7705 11.4314 103.045H114.79C122.001 92.7705 126.222 80.2398 126.222 66.7211Z" fill="#F6F6F6"/>
<path d="M63.1193 130C84.4875 130 103.392 119.347 114.807 103.045H11.4316C22.8466 119.347 41.7347 130 63.1193 130Z" fill="#F7F7F7"/>
</mask>
<g mask="url(#mask0_1263_5587)">
<path d="M56.9814 80.6001C57.3799 81.6971 57.6788 82.882 57.8448 84.0668" stroke="#232323" stroke-miterlimit="10" stroke-linecap="round" stroke-linejoin="round"/>
<path d="M62.1612 79.7334C61.5856 81.7556 61.2979 83.7778 61.2979 85.8001" stroke="#232323" stroke-miterlimit="10" stroke-linecap="round" stroke-linejoin="round"/>
<path d="M63.8887 85.8C64.5794 85.3094 65.1837 84.688 65.6154 84.0667" stroke="#232323" stroke-miterlimit="10" stroke-linecap="round" stroke-linejoin="round"/>
<path d="M66.8014 38.1333C60.6447 42.3441 57.726 50.7182 59.0029 58.2645C60.2799 65.8107 65.2964 72.3634 71.6583 76.2666" stroke="#ED4550" stroke-miterlimit="10" stroke-linecap="round" stroke-linejoin="round"/>
<path fill-rule="evenodd" clip-rule="evenodd" d="M-2.98828 123.358C-2.98828 122.929 -2.64121 122.581 -2.21307 122.581H47.0596C47.4878 122.581 47.8348 122.929 47.8348 123.358C47.8348 123.788 47.4878 124.136 47.0596 124.136H-2.21307C-2.64121 124.136 -2.98828 123.788 -2.98828 123.358Z" fill="#232323"/>
<path d="M78.9057 94.7583H77.2002V176.238H78.9057V94.7583Z" fill="#232323"/>
<path fill-rule="evenodd" clip-rule="evenodd" d="M13.9661 77.9547C14.0265 78.3796 13.7319 78.7732 13.308 78.8338L-2.56839 81.1032C-2.99224 81.1638 -3.38483 80.8684 -3.44527 80.4435C-3.5057 80.0185 -3.21109 79.625 -2.78723 79.5644L13.0892 77.295C13.513 77.2344 13.9056 77.5298 13.9661 77.9547Z" fill="#232323"/>
<path fill-rule="evenodd" clip-rule="evenodd" d="M30.9969 123.048C31.425 123.048 31.7721 123.396 31.7721 123.825V178.943C31.7721 179.372 31.425 179.72 30.9969 179.72C30.5688 179.72 30.2217 179.372 30.2217 178.943V123.825C30.2217 123.396 30.5688 123.048 30.9969 123.048Z" fill="#232323"/>
<path fill-rule="evenodd" clip-rule="evenodd" d="M33.5861 94.1176C33.9217 93.8512 34.4093 93.908 34.675 94.2445C34.7347 94.3201 34.7852 94.4167 34.8031 94.451C34.8042 94.4532 34.8052 94.4552 34.8061 94.4569C34.8371 94.5157 34.875 94.5913 34.9186 94.6801C35.0063 94.8587 35.1253 95.1083 35.2727 95.4218C35.5678 96.0498 35.9824 96.9466 36.4984 98.0723C37.5307 100.324 38.9726 103.499 40.6857 107.287C44.1121 114.862 48.6252 124.893 53.1196 134.899C57.614 144.906 62.09 154.889 65.4424 162.37C67.1186 166.111 68.5139 169.226 69.4901 171.406C69.9783 172.497 70.3616 173.353 70.623 173.937L71.022 174.828L71.0232 174.831C71.0235 174.831 71.0236 174.832 70.3163 175.15C69.609 175.468 69.6089 175.468 69.6086 175.467L69.2085 174.573C68.9471 173.989 68.5638 173.133 68.0757 172.043C67.0995 169.863 65.7042 166.748 64.0281 163.007C60.6758 155.526 56.2 145.543 51.7059 135.537C47.2116 125.531 42.6992 115.502 39.2737 107.929C37.5608 104.142 36.1202 100.97 35.0896 98.7213C34.5741 97.5969 34.1621 96.7055 33.8702 96.0843C33.724 95.7733 33.6093 95.5331 33.5275 95.3665C33.4864 95.2826 33.4556 95.2217 33.4344 95.1813C33.4287 95.1704 33.4242 95.1622 33.4209 95.1562C33.2003 94.823 33.2677 94.3703 33.5861 94.1176ZM70.6337 175.859C70.2431 176.035 69.7843 175.86 69.609 175.468L70.3163 175.15L71.0236 174.832C71.1989 175.223 71.0243 175.683 70.6337 175.859Z" fill="#232323"/>
<path d="M45.6339 47.2259C45.7269 49.4331 45.2928 51.6092 44.8586 53.7854C46.6571 54.2517 48.0525 55.7749 48.7037 57.5158C49.3549 59.2567 49.3549 61.1841 49.0448 62.9872C48.5797 65.6918 47.4014 68.241 45.6959 70.386C44.9517 71.3186 44.0524 72.189 42.9051 72.4688C42.0059 72.6864 41.0756 72.531 40.1453 72.3445C37.3236 71.816 34.2227 71.101 32.4862 68.8005C31.742 67.8368 31.3389 66.6555 30.9358 65.5053C30.4396 64.1374 29.9435 62.7074 29.9125 61.2463C29.8505 58.8215 31.0288 56.5521 32.1761 54.4071C33.4475 52.0445 34.7188 49.6507 35.9902 47.2881C36.7654 45.8581 37.5406 44.397 38.6879 43.2778C39.6802 42.3141 42.1299 40.822 43.5873 41.6302C45.1687 42.5007 45.5718 45.6405 45.6339 47.2259Z" fill="#232323"/>
<path d="M43.2461 72.53L57.7271 88.7887L51.4014 91.3068L37.8506 78.934L43.2461 72.53Z" fill="#F25F6A"/>
<path d="M3.80273 105.763C12.082 105.452 20.3613 105.328 28.6717 105.483C29.1988 105.483 29.788 105.483 30.1911 105.141C30.3771 104.955 30.5322 104.737 30.6252 104.488C32.0516 101.535 32.4547 98.2088 33.1369 94.9757C33.1989 94.6338 33.2919 94.2607 33.478 93.981C33.7261 93.5768 34.1602 93.3592 34.5633 93.1105C36.2998 92.0535 37.9742 90.6546 38.6874 88.7583C39.8348 85.6806 38.2843 82.1056 39.3386 79.0279C39.7727 77.7534 40.641 76.6342 41.6643 75.7327C42.4085 75.0799 43.2767 74.427 43.4628 73.4633C43.5868 72.8416 43.3697 72.2198 43.1527 71.6292C42.5325 69.8572 41.8503 67.9919 40.4239 66.7174C38.9665 65.4117 36.9199 64.9454 34.9974 64.6034C32.6408 64.1993 30.2221 63.8884 27.8344 63.733C24.1444 63.4843 20.3303 63.5154 16.8574 64.7589C14.2526 65.6915 12.051 67.3702 10.4076 69.6085C8.95017 71.6292 8.76411 73.1524 8.60907 75.6083C8.14394 82.1367 6.5625 88.5096 5.32216 94.9136C4.60896 98.4886 4.01979 102.126 3.80273 105.763Z" fill="white"/>
<path d="M112.705 92.5508H28.3614C28.0203 92.5508 27.7412 92.8306 27.7412 93.1725V94.9756C27.7412 95.3176 28.0203 95.5973 28.3614 95.5973H112.705C113.046 95.5973 113.325 95.3176 113.325 94.9756V93.1725C113.325 92.8306 113.046 92.5508 112.705 92.5508Z" fill="#232323"/>
<path d="M78.2853 93.4837H56.9204C55.649 93.4837 54.5947 92.4267 54.5947 91.1521C54.5947 89.8775 55.649 88.8206 56.9204 88.8206H78.2853C79.5567 88.8206 80.611 89.8775 80.611 91.1521C80.611 92.4578 79.5877 93.4837 78.2853 93.4837Z" fill="#E29729"/>
<path d="M107.93 93.5455H74.3165C72.9831 93.5455 72.0218 92.302 72.3319 91.0274L77.5724 69.0176C77.7894 68.085 78.6267 67.4321 79.5569 67.4321H113.139C114.473 67.4321 115.434 68.6756 115.124 69.9502L109.883 91.96C109.697 92.8927 108.86 93.5455 107.93 93.5455Z" fill="#F3A62C"/>
<path d="M95.5262 83.94C97.41 83.94 98.9371 82.409 98.9371 80.5204C98.9371 78.6318 97.41 77.1008 95.5262 77.1008C93.6424 77.1008 92.1152 78.6318 92.1152 80.5204C92.1152 82.409 93.6424 83.94 95.5262 83.94Z" fill="#BF7C1B"/>
<path d="M13.4156 82.4475C13.4156 82.4475 15.2762 83.6289 17.0126 82.5097C18.7491 81.3906 22.067 76.6653 21.943 76.0125C21.819 75.3596 16.2064 71.9711 14.1909 74.9244C12.1753 77.8777 13.4156 82.4475 13.4156 82.4475Z" fill="#DFE5EA"/>
<path d="M12.8571 78.8411C12.8571 78.8411 27.2141 93.7008 29.3537 93.7941C31.4933 93.8562 53.6955 93.7941 53.6955 93.7941C53.6955 93.7941 56.2072 92.9858 57.2925 91.5869C58.4088 90.1879 62.812 90.6232 62.8741 89.9703C62.9361 89.3175 63.1531 88.416 61.9128 88.2605C60.6724 88.1051 56.9204 86.8616 56.0211 87.3901C55.1529 87.9186 53.7265 89.3797 52.9203 89.5973C52.1141 89.8149 33.6329 90.0325 32.1755 88.9444C30.7181 87.8253 21.2295 75.6702 21.2295 75.6702C21.2295 75.6702 11.4618 69.204 12.8571 78.8411Z" fill="#FC6772"/>
<path d="M12.9189 81.8573C12.9189 81.8573 13.9421 83.5049 14.0042 81.7951C14.0662 80.0853 13.1669 77.0388 15.5856 75.7331C18.0043 74.4275 22.2525 77.1942 21.9734 75.8575C21.6943 74.5518 17.8492 62.0858 11.0583 67.2463C4.26746 72.4379 12.9189 81.8573 12.9189 81.8573Z" fill="#FBFBFB"/>
<path d="M22.9039 64.3234C23.1829 66.0954 24.1442 67.8052 25.7256 68.6445C27.3071 69.4839 29.4467 69.2352 30.594 67.8673C31.5242 66.7482 31.6173 65.1938 31.6483 63.7327C31.7103 61.7121 31.6793 59.6603 31.6173 57.6396C32.7026 58.2925 33.8809 58.9764 35.1522 58.9453C36.5166 58.9142 37.757 58.0127 38.5322 56.8935C39.3074 55.7744 39.7415 54.4376 40.1136 53.132C40.7958 50.7072 41.385 48.2823 41.8501 45.7954C42.0362 44.8006 42.2222 43.8058 42.2842 42.7799C42.3152 42.3758 42.2842 41.9716 42.1292 41.6297C41.9121 41.1634 41.416 40.8836 40.9819 40.6038C40.0516 40.0753 39.1524 39.5157 38.1601 39.1738C36.6407 38.6142 34.9662 38.4898 33.3538 38.3966C32.0204 38.3033 30.656 38.2411 29.3226 38.5209C27.9272 38.8318 26.6559 39.5779 25.3845 40.324C23.307 41.5364 21.1364 42.8421 20.1131 45.0182C19.3999 46.5104 19.3379 48.2202 19.3069 49.8989C19.2758 54.4065 19.5549 59.0696 21.6635 63.0488C21.6945 63.111 21.6635 62.9245 21.6945 62.8623C21.7255 62.8001 21.8185 62.8312 21.8806 62.8623C22.5007 63.1421 22.8108 63.6395 22.9039 64.3234Z" fill="#FC6772"/>
<path d="M24.1752 44.3651C23.8961 44.676 23.741 45.1112 23.648 45.5464C23.462 46.5101 23.493 47.5049 23.8031 48.4376C24.2372 49.7121 25.0744 50.8002 25.6636 51.9815C27.183 55.0592 26.8109 58.7896 25.5085 61.9606C24.9504 63.3284 24.2062 64.6962 23.0279 65.6289C21.4464 66.9034 19.3378 67.2454 17.3223 67.3387C16.547 67.3697 15.7718 67.3697 15.0276 67.1521C14.2834 66.9345 13.6322 66.5615 12.9811 66.0952C8.20573 62.6445 6.19016 55.8674 8.29875 50.365C8.91892 48.7484 9.88019 47.2252 11.2756 46.2614C12.702 45.2977 14.6245 44.9558 16.1439 45.7019C15.7718 44.4273 15.4928 43.0905 15.9269 41.847C16.5781 40.1062 18.8417 39.2046 20.5162 40.044C20.3611 38.3653 20.7642 36.6244 21.6635 35.1944C22.0356 34.6037 22.5007 34.0441 23.0899 33.6711C24.4543 32.8317 26.1907 33.1426 27.7722 33.3291C29.4466 33.5467 31.1521 33.64 32.8266 33.3913C34.47 33.1426 36.0515 32.583 37.6639 32.1478C39.2764 31.7126 40.9819 31.4328 42.6253 31.7437C44.2688 32.0856 45.8502 33.1426 46.4084 34.728C47.1216 36.7798 46.0052 38.987 44.8579 40.8523C44.1757 41.9092 43.2765 43.0905 42.0051 43.0905C41.2609 43.0905 40.5787 42.6553 39.9586 42.2512C38.4391 41.2564 36.7957 40.3238 34.9662 40.3238C33.4157 40.3238 31.9583 41.0077 30.749 41.9714C29.8808 42.6553 28.8265 44.4895 27.6791 44.4895C26.5008 44.4273 25.3535 43.0595 24.1752 44.3651Z" fill="#232323"/>
<path d="M28.6101 105.204L62.0373 106.976C62.0373 106.976 68.3011 106.882 68.4561 113.224C68.6112 119.566 59.7427 168.684 59.7427 168.684C59.7427 168.684 55.8046 169.927 54.3782 169.275L55.2155 121.462L23.6797 118.913L28.6101 105.204Z" fill="#2872EF"/>
<path d="M3.77167 105.763C3.77167 105.763 -0.104411 123.421 15.3689 123.421C30.8422 123.421 49.9435 122.55 49.9435 122.55C49.9435 122.55 50.9978 122.488 51.9901 124.478C52.9824 126.467 81.2002 169.492 81.2002 169.492C81.2002 169.492 85.4484 168.87 85.8205 167.192L60.8586 118.043C60.8586 118.043 58.812 112.416 51.835 111.172C44.8581 109.929 28.7336 105.172 28.7336 105.172L3.77167 105.763Z" fill="#4787F2"/>
<path fill-rule="evenodd" clip-rule="evenodd" d="M-2.61103 79.3534C-2.24768 79.2816 -1.88442 79.4775 -1.74388 79.821L38.5983 178.43C38.7608 178.827 38.5714 179.281 38.1753 179.444C37.7791 179.607 37.3263 179.417 37.1639 179.02L-1.6859 84.0588V178.227C-1.6859 178.657 -2.03297 179.005 -2.46111 179.005C-2.88925 179.005 -3.23633 178.657 -3.23633 178.227V80.1159C-3.23633 79.7446 -2.97438 79.4252 -2.61103 79.3534Z" fill="#232323"/>
</g>
</g>
<path d="M139 24.057C139 10.7688 128.258 0 115.004 0C101.749 0 91.0078 10.7688 91.0078 24.057C91.0078 28.8651 92.4203 33.3439 94.8511 37.1146H135.173C137.604 33.3604 139 28.8816 139 24.057Z" fill="#EFEFEF"/>
<path d="M115.004 48.1298C123.463 48.1298 130.903 43.7499 135.173 37.114H94.835C99.1053 43.7499 106.546 48.1298 115.004 48.1298Z" fill="#EBEBEB"/>
<path d="M124.169 36.1096H121.64V40.4073H124.169V36.1096Z" fill="#2872EF"/>
<path d="M108.319 36.1597H105.297V40.4573H108.319V36.1597Z" fill="#2872EF"/>
<path d="M119.603 16.0212H110.175H110.159C106.66 16.0212 103.835 18.8699 103.77 22.3936V40.4734H105.445V36.538H111.719V40.457H113.969V40.424H116.548V22.5254C116.548 22.5254 116.548 22.5254 116.548 22.5089C116.548 22.4924 116.548 22.5089 116.548 22.4924V22.3442C116.531 21.8338 116.466 21.3233 116.334 20.8458H119.603V16.0212Z" fill="#5493EF"/>
<path d="M126.452 22.4759V22.3113C126.37 18.804 123.512 15.9883 119.981 15.9883C116.45 15.9883 113.575 18.8369 113.51 22.3607V40.4405H116.548V36.5051H123.43V40.3911H126.469L126.452 22.4759C126.452 22.4924 126.452 22.4924 126.452 22.4759Z" fill="#4787F2"/>
<path d="M105.379 24.1719L111.669 24.2048L111.686 34.3809L105.395 34.4138L105.379 24.1719Z" fill="#FBF9FA"/>
<path d="M106.118 27.4653H110.848L110.881 33.4425L106.184 33.4919L106.118 27.4653Z" fill="#303C7F"/>
<path d="M125.417 20.5986L126.304 18.9685C126.386 18.8038 126.616 18.8038 126.715 18.9685L127.602 20.5986C127.618 20.6315 127.651 20.6645 127.7 20.6974L129.326 21.5866C129.49 21.6689 129.49 21.8994 129.326 21.9982L127.7 22.8874C127.667 22.9039 127.634 22.9368 127.602 22.9862L126.715 24.6163C126.632 24.781 126.403 24.781 126.304 24.6163L125.417 22.9862C125.401 22.9533 125.368 22.9203 125.319 22.8874L123.693 21.9982C123.528 21.9159 123.528 21.6854 123.693 21.5866L125.319 20.6974C125.351 20.6645 125.384 20.6315 125.417 20.5986Z" fill="#F3A62C"/>
<path d="M101.486 14.8691L102.028 13.8646C102.078 13.7658 102.226 13.7658 102.275 13.8646L102.817 14.8691C102.833 14.8855 102.85 14.9185 102.866 14.9185L103.868 15.4618C103.967 15.5112 103.967 15.6594 103.868 15.7088L102.866 16.2522C102.85 16.2687 102.817 16.2851 102.817 16.3016L102.275 17.306C102.226 17.4048 102.078 17.4048 102.028 17.306L101.486 16.3016C101.47 16.2851 101.454 16.2522 101.437 16.2522L100.435 15.7088C100.337 15.6594 100.337 15.5112 100.435 15.4618L101.437 14.9185C101.454 14.9185 101.47 14.902 101.486 14.8691Z" fill="#F3A62C"/>
<path d="M106.135 26.2141V26.8233L109.321 26.8069V26.1812L106.135 26.2141Z" fill="#303C7F"/>
<path d="M104.903 21.2743C104.903 21.2743 105.183 17.0096 109.749 16.7791L115.103 16.7955C115.103 16.7955 112.508 18.508 112.524 21.2249L104.903 21.2743Z" fill="#303C7F"/>
<path d="M109.732 16.7791V21.2414L104.903 21.2578C104.903 21.2578 105.183 17.026 109.732 16.7791Z" fill="#252C66"/>
<path d="M106.135 25.0779V25.6048H108.155L108.122 25.0449L106.135 25.0779Z" fill="#303C7F"/>
<path d="M69.1029 30.5397L69.9153 36.3244L96.9622 26.4095L72.4561 29.3765L69.1029 30.5397Z" fill="#377BDD"/>
<path d="M71.1504 32.48L79.5294 39.8948L97.129 26.3608L71.1504 32.48Z" fill="#5493EF"/>
<path d="M64.7109 26.384L69.1226 30.6069L97.1292 26.3609L64.7109 26.384Z" fill="#5493EF"/>
<path d="M71.0837 32.4995L69.8916 36.3678L74.4969 34.6565L71.0837 32.4995Z" fill="#4787F2"/>
<defs>
<clipPath id="clip0_1263_5587">
<rect width="139" height="130" fill="white"/>
</clipPath>
</defs>
</svg>
